HIERARCHY
ROOT Hips
{
  OFFSET 43.0842 91.1655 101.099
  CHANNELS 6 Xposition Yposition Zposition Zrotation Xrotation Yrotation
  JOINT LeftUpLeg
  {
    OFFSET 8.64259 1.95398 -2.38835
    CHANNELS 3 Zrotation Xrotation Yrotation
    JOINT LeftLeg
    {
      OFFSET 43.7702 0 0
      CHANNELS 3 Zrotation Xrotation Yrotation
      JOINT LeftFoot
      {
        OFFSET 40.6238 0 0
        CHANNELS 3 Zrotation Xrotation Yrotation
        JOINT LeftToeBase
        {
          OFFSET 12.7242 0 0
          CHANNELS 3 Zrotation Xrotation Yrotation
          End Site
          {
            OFFSET 0 0 0
          }
        }
      }
    }
  }
  JOINT RightUpLeg
  {
    OFFSET -8.2249 1.95398 -2.59336
    CHANNELS 3 Zrotation Xrotation Yrotation
    JOINT RightLeg
    {
      OFFSET 43.5653 0 0
      CHANNELS 3 Zrotation Xrotation Yrotation
      JOINT RightFoot
      {
        OFFSET 40.6238 0 0
        CHANNELS 3 Zrotation Xrotation Yrotation
        JOINT RightToeBase
        {
          OFFSET 12.7242 0 0
          CHANNELS 3 Zrotation Xrotation Yrotation
          End Site
          {
            OFFSET 0 0 0
          }
        }
      }
    }
  }
  JOINT Spine
  {
    OFFSET 0.165834 0.87714 6.61349
    CHANNELS 3 Zrotation Xrotation Yrotation
    JOINT Spine1
    {
      OFFSET 7.38963 1.71661e-005 0
      CHANNELS 3 Zrotation Xrotation Yrotation
      JOINT Spine2
      {
        OFFSET 11.9445 1.14441e-005 0
        CHANNELS 3 Zrotation Xrotation Yrotation
        JOINT Spine3
        {
          OFFSET 14.7254 4.19617e-005 0
          CHANNELS 3 Zrotation Xrotation Yrotation
          JOINT Spine4
          {
            OFFSET 10.9679 0 0
            CHANNELS 3 Zrotation Xrotation Yrotation
            JOINT RightShoulder
            {
              OFFSET 2.46616 -1.6653 3.69651
              CHANNELS 3 Zrotation Xrotation Yrotation
              JOINT RightArm
              {
                OFFSET 13.0012 0 0
                CHANNELS 3 Zrotation Xrotation Yrotation
                JOINT RightForeArm
                {
                  OFFSET 28.7848 1.52588e-005 0
                  CHANNELS 3 Zrotation Xrotation Yrotation
                  JOINT RightHand
                  {
                    OFFSET 26.5688 1.52588e-005 0
                    CHANNELS 3 Zrotation Xrotation Yrotation
                    End Site
                    {
                      OFFSET 0 0 0
                    }
                  }
                }
              }
            }
            JOINT LeftShoulder
            {
              OFFSET 2.38034 -1.29275 -3.7523
              CHANNELS 3 Zrotation Xrotation Yrotation
              JOINT LeftArm
              {
                OFFSET 16.3182 6.10351e-005 0
                CHANNELS 3 Zrotation Xrotation Yrotation
                JOINT LeftForeArm
                {
                  OFFSET 27.0901 0 0
                  CHANNELS 3 Zrotation Xrotation Yrotation
                  JOINT LeftHand
                  {
                    OFFSET 24.5451 1.52588e-005 0
                    CHANNELS 3 Zrotation Xrotation Yrotation
                    End Site
                    {
                      OFFSET 0 0 0
                    }
                  }
                }
              }
            }
            JOINT Neck
            {
              OFFSET 5.0226 -0.0266342 0
              CHANNELS 3 Zrotation Xrotation Yrotation
              JOINT Head
              {
                OFFSET 6.69364 2.86102e-005 0
                CHANNELS 3 Zrotation Xrotation Yrotation
                End Site
                {
                  OFFSET 0 0 0
                }
              }
            }
          }
        }
      }
    }
  }
}
MOTION
Frames:	12
Frame Time:	0.0333333
31.976 90.0638 111.403 92.176 -37.3308 91.9922 -170.673 7.82309 95.3869 -35.2205 20.564 -3.93642 66.6028 7.28003 20.9599 36.6414 5.91218 8.23325 175.342 27.6479 80.985 -23.416 5.91555 -0.418244 67.1423 -8.46186 -3.39203 36.3913 -4.27287 0.27969 -0.930915 7.82394 -89.6605 11.233 -1.69462 0.842993 -0.437204 -1.65588 0.916763 -22.9808 -1.86961 0.294569 -2.96818 -1.86961 0.294565 94.5127 -46.2944 -94.4517 21.3403 58.6254 -15.3327 3.03383 -22.625 -132.542 -6.70952 0.0798409 9.91838 -99.579 -53.2451 65.7563 -8.40826 3.70049 -62.3501 14.0676 8.35112 -106.15 33.2773 3.22189 -10.7138 -22.3771 -10.9349 -7.46626 6.10228 -12.507 -11.2121 
32.2294 90.3667 111.876 92.3064 -37.343 92.2799 -170.526 6.82851 95.6752 -33.9732 21.0255 -3.66401 65.8434 6.73318 21.1969 36.6329 6.03859 7.96556 175.858 27.3236 80.7918 -24.1902 1.12151 -0.466273 64.6507 -5.24924 -0.992514 30.7507 -0.637232 -1.34823 -0.903833 7.82958 -89.706 11.2208 -1.66178 0.748997 -0.449309 -1.62724 0.821419 -22.9927 -1.81007 0.21478 -2.98006 -1.81006 0.214795 94.8008 -45.2291 -94.1547 22.8514 56.6077 -15.8968 2.68956 -21.1098 -133.582 -6.99012 -0.00898371 10.0793 -99.3854 -53.4101 66.0841 -10.0643 2.96799 -63.9008 12.6212 10.9309 -106.535 28.702 3.28793 -5.9773 -22.591 -11.3565 -7.64816 7.0828 -13.0991 -11.8018 
32.5827 90.2622 112.743 92.8191 -37.4362 92.656 -170.11 5.89507 96.2642 -33.9313 20.6089 -3.40658 65.5392 6.52011 20.5669 37.4223 7.50872 7.20873 176.106 26.2391 80.8845 -25.1789 -2.49636 -0.709977 65.6713 -5.69907 -2.45924 25.7189 2.74618 -2.45874 -0.764695 7.83311 -89.6263 11.213 -1.34807 0.876412 -0.457592 -1.30821 0.93489 -22.9976 -1.54915 0.430672 -2.98498 -1.54914 0.430667 95.0685 -46.9339 -93.4551 21.3248 55.8314 -15.4802 3.15986 -21.0974 -134.386 -7.93317 -0.374685 9.74935 -98.5588 -51.8562 66.73 -13.1873 2.72152 -64.9907 9.60471 14.4914 -106.505 24.2312 2.9851 -1.48283 -23.8769 -11.3346 -11.7007 9.06841 -13.3789 -9.31462 
32.8681 90.0802 113.739 92.8362 -37.5188 92.5184 -169.79 5.39045 96.6279 -33.8723 20.4303 -3.34392 65.48 6.6778 20.521 37.779 7.95119 7.30359 175.798 24.4127 81.375 -22.9905 2.11042 -0.727199 68.4168 -8.58982 0.0785403 25.7722 2.47016 -1.85463 -0.73965 7.81003 -89.5499 11.259 -1.26235 1.02118 -0.411738 -1.21619 1.07575 -22.9505 -1.5109 0.594542 -2.93781 -1.51089 0.594544 94.9254 -47.896 -93.5418 20.9741 54.3469 -15.8806 2.88471 -20.232 -135.094 -7.88078 -0.35493 9.75914 -98.4739 -51.2976 66.6635 -14.2269 2.65858 -64.5183 7.92866 15.594 -107.093 22.2508 2.72732 0.87469 -24.063 -11.1931 -13.3329 9.37415 -13.2916 -8.38445 
33.1835 90.0026 114.847 92.6426 -37.4943 92.2654 -169.819 5.23489 96.9197 -34.4271 19.9885 -2.9215 65.3102 6.18723 19.5976 38.1369 8.30884 7.58322 175.607 22.2717 81.7377 -20.0372 0.247842 -0.645269 69.3569 -9.44478 -4.61655 25.3146 1.82178 0.403673 -0.794552 7.76493 -89.5468 11.3501 -1.36975 1.03978 -0.320628 -1.32263 1.09906 -22.8603 -1.6189 0.579991 -2.84763 -1.6189 0.579988 94.9645 -47.5221 -93.5348 22.1332 52.5782 -16.8098 1.93545 -19.4596 -135.702 -7.691 -0.286875 9.74731 -98.8329 -51.7085 66.2889 -14.2409 3.08392 -63.0721 7.48941 15.5062 -107.577 21.8884 2.66803 1.28489 -23.4751 -11.061 -12.7062 8.30397 -12.9865 -8.59418 
33.5311 89.8555 116.179 92.5864 -37.6442 92.1196 -169.071 4.77183 97.7679 -34.3653 19.687 -3.01407 65.3066 6.49297 18.6201 38.5373 8.82369 7.65202 175.842 21.1766 82.0651 -19.8392 0.0860032 -0.958126 70.7487 -10.6151 -4.77919 26.4225 1.16625 0.452388 -0.805092 7.71673 -89.5494 11.4466 -1.3914 1.03866 -0.224108 -1.34433 1.09888 -22.764 -1.63921 0.572403 -2.75131 -1.63921 0.572399 94.9893 -47.6534 -93.4759 22.3015 50.1046 -16.8406 1.52887 -18.4102 -136.215 -7.18104 -0.0882232 9.95096 -99.476 -52.356 65.5959 -14.1757 3.85192 -61.1911 6.89328 15.3204 -107.991 21.3538 2.58825 0.778872 -23.5463 -11.0698 -12.1695 6.61958 -12.9195 -9.26922 
33.6938 90.0317 117.414 92.4956 -37.5597 92.4051 -168.145 5.24586 99.218 -35.3189 20.2977 -2.97375 64.8638 6.20366 16.7746 38.799 8.70677 8.69941 175.62 20.8916 82.7547 -20.4054 0.342495 -0.704013 71.106 -10.4288 -4.57059 26.9806 0.699588 0.846393 -0.86427 7.6943 -89.5605 11.4922 -1.51401 1.03012 -0.178317 -1.46723 1.09576 -22.7194 -1.7536 0.527384 -2.70679 -1.75361 0.527377 94.6786 -49.0955 -93.7526 22.0117 47.5291 -17.4885 1.58328 -17.8148 -135.355 -7.82263 -0.340197 9.668 -99.6325 -52.8138 65.5332 -14.2376 5.12293 -59.3607 8.27838 13.9597 -108.44 20.1879 2.41522 0.60265 -24.1914 -10.6213 -12.7337 5.70912 -12.4882 -8.88133 
33.8166 90.0751 118.36 92.2428 -37.8004 92.5621 -167.386 6.80082 100.419 -37.9161 20.7175 -2.98156 64.7575 5.74633 14.3828 38.9782 8.0383 10.6621 175.592 20.8429 83.4002 -20.5911 -1.58931 -0.321626 70.5178 -9.80744 -7.51367 28.0475 -0.384053 2.15906 -0.896615 7.67207 -89.638 11.5365 -1.61438 0.886782 -0.133825 -1.57379 0.956979 -22.6764 -1.80623 0.360474 -2.6638 -1.80625 0.360471 94.5382 -49.4658 -93.916 22.3981 45.7859 -17.9761 0.977705 -17.3017 -134.372 -7.64465 -0.251572 10.0234 -100.511 -53.6325 64.5873 -12.973 6.22142 -57.6616 8.37885 12.1595 -108.005 18.9845 2.23911 0.541102 -25.7254 -10.2742 -12.7508 6.2839 -12.3461 -8.48752 
33.9118 90.1533 119.335 92.4671 -37.3396 92.9507 -166.208 8.14889 101.867 -40.3997 22.7051 -2.9499 64.1606 5.21341 12.3186 39.3143 7.37948 13.0426 175.8 20.4598 83.9864 -21.5633 -1.49327 -0.423347 70.8193 -9.41759 -7.36629 28.2688 -0.235047 1.42677 -0.954723 7.69716 -89.6892 11.4864 -1.75414 0.798038 -0.183673 -1.71732 0.874479 -22.728 -1.91287 0.233783 -2.71539 -1.91285 0.233792 94.3687 -49.9169 -94.1112 22.1006 44.7491 -17.3078 0.715839 -17.1873 -133.809 -7.49517 -0.194199 10.067 -100.712 -53.6145 64.3005 -13.9832 6.045 -56.4856 7.4383 13.0248 -107.749 17.9633 2.10323 0.0797365 -27.5617 -9.9563 -13.087 7.32896 -12.3863 -8.62213 
34.0366 90.1643 120.019 92.7824 -36.5295 93.3517 -165.96 9.37476 102.808 -42.6996 24.6187 -2.38172 64.5464 6.59448 12.2162 39.6941 6.65205 15.6001 175.788 19.8264 84.2793 -22.1425 -2.58631 -0.4291 71.2834 -9.05878 -8.35232 27.9838 0.149286 0.81131 -1.02898 7.72991 -89.6765 11.4219 -1.89631 0.836034 -0.248015 -1.85767 0.918692 -22.794 -2.05988 0.227251 -2.78131 -2.05987 0.227246 94.2885 -50.8124 -94.0977 21.4883 43.557 -16.0499 0.0557455 -15.975 -134.058 -8.0404 -0.399231 9.96167 -99.4413 -52.4906 65.6919 -15.3983 6.18073 -57.3442 7.5658 13.9744 -107.239 17.6546 2.05081 0.284199 -28.4052 -9.67234 -14.2752 7.15677 -12.2798 -8.05629 
34.3046 90.0725 120.203 92.7465 -36.2033 93.5 -166.712 10.131 102.775 -43.4884 22.7938 -1.6207 65.544 8.44583 13.2893 40.0433 7.21808 15.5884 175.344 19.8973 84.2909 -22.6105 -2.41343 -0.0740815 71.2455 -9.05406 -8.41011 28.4666 -0.114128 0.795768 -1.10929 7.7158 -89.7051 11.4508 -2.06931 0.797505 -0.218803 -2.03219 0.887816 -22.767 -2.21328 0.138434 -2.75441 -2.21327 0.138437 93.7631 -51.5936 -94.7781 20.8577 43.5291 -15.8761 0.615296 -16.252 -133.866 -8.17553 -0.454002 9.86887 -99.0618 -52.3647 66.1863 -15.6391 5.59544 -57.8297 8.04677 14.0127 -107.72 17.4203 1.99362 0.851314 -29.9455 -9.2519 -14.1534 7.64867 -12.1311 -8.38396 
34.6959 89.985 119.947 92.8125 -36.9407 93.3809 -167.22 9.73835 102.322 -41.43 21.8483 -1.78461 65.7826 8.72758 15.0696 39.7404 6.62199 15.8135 175.35 19.976 84.0945 -22.3241 -2.0848 -0.214732 70.7503 -9.02829 -8.03388 28.5252 -0.18817 0.906449 -1.03335 7.73531 -89.7775 11.4099 -1.95219 0.640276 -0.259803 -1.92211 0.725592 -22.8067 -2.05433 0.023722 -2.79405 -2.05431 0.0237202 94.0775 -50.814 -94.4215 21.5214 44.1495 -16.6034 2.13184 -17.4147 -133.613 -8.49494 -0.557096 10.0825 -99.3826 -52.5573 65.7977 -15.9741 4.34051 -59.0645 6.74191 15.4533 -107.541 17.8693 2.06392 0.753535 -30.8781 -9.27363 -14.2144 8.30191 -12.3252 -8.22022 
